<mxfile host="app.diagrams.net" modified="2020-08-28T05:20:47.175Z" agent="5.0 (Macintosh; Intel Mac OS X 10_15_5) AppleWebKit/605.1.15 (KHTML, like Gecko) Version/13.1.1 Safari/605.1.15" etag="meoNmfi5yOPgIpXiIgnp" version="13.6.5" type="github">
  <diagram id="A_K9iTcbYyTkNCHJsZhD" name="Page-1">
    <mxGraphModel dx="2488" dy="1359" grid="1" gridSize="10" guides="1" tooltips="1" connect="1" arrows="1" fold="1" page="1" pageScale="1" pageWidth="827" pageHeight="1169" math="0" shadow="0">
      <root>
        <mxCell id="0" />
        <mxCell id="1" parent="0" />
        <mxCell id="aO_Kc3jZTQS9ayOY7ApJ-1" value="" style="rounded=0;whiteSpace=wrap;html=1;fillColor=none;" vertex="1" parent="1">
          <mxGeometry x="-74" y="700" width="864" height="230" as="geometry" />
        </mxCell>
        <mxCell id="Ka7_JeoY7FTha2EHZpds-73" style="edgeStyle=orthogonalEdgeStyle;rounded=0;orthogonalLoop=1;jettySize=auto;html=1;exitX=0.5;exitY=1;exitDx=0;exitDy=0;entryX=0.5;entryY=0;entryDx=0;entryDy=0;" parent="1" source="Ka7_JeoY7FTha2EHZpds-1" target="Ka7_JeoY7FTha2EHZpds-28" edge="1">
          <mxGeometry relative="1" as="geometry" />
        </mxCell>
        <mxCell id="Ka7_JeoY7FTha2EHZpds-1" value="" style="rounded=0;whiteSpace=wrap;html=1;" parent="1" vertex="1">
          <mxGeometry x="361" y="300" width="120" height="60" as="geometry" />
        </mxCell>
        <mxCell id="Ka7_JeoY7FTha2EHZpds-2" value="Machine" style="text;html=1;strokeColor=none;fillColor=none;align=center;verticalAlign=middle;whiteSpace=wrap;rounded=0;" parent="1" vertex="1">
          <mxGeometry x="391" y="320" width="60" height="20" as="geometry" />
        </mxCell>
        <mxCell id="Ka7_JeoY7FTha2EHZpds-81" style="edgeStyle=orthogonalEdgeStyle;rounded=0;orthogonalLoop=1;jettySize=auto;html=1;exitX=0;exitY=0.5;exitDx=0;exitDy=0;entryX=1;entryY=0.5;entryDx=0;entryDy=0;" parent="1" source="Ka7_JeoY7FTha2EHZpds-3" target="Ka7_JeoY7FTha2EHZpds-78" edge="1">
          <mxGeometry relative="1" as="geometry" />
        </mxCell>
        <mxCell id="Ka7_JeoY7FTha2EHZpds-3" value="Sensor" style="rounded=0;whiteSpace=wrap;html=1;" parent="1" vertex="1">
          <mxGeometry x="361" y="480" width="120" height="60" as="geometry" />
        </mxCell>
        <mxCell id="Ka7_JeoY7FTha2EHZpds-5" value="1" style="text;html=1;align=center;verticalAlign=middle;resizable=0;points=[];autosize=1;" parent="1" vertex="1">
          <mxGeometry x="396" y="360" width="20" height="20" as="geometry" />
        </mxCell>
        <mxCell id="Ka7_JeoY7FTha2EHZpds-6" value="1..*" style="text;html=1;align=center;verticalAlign=middle;resizable=0;points=[];autosize=1;" parent="1" vertex="1">
          <mxGeometry x="391" y="450" width="30" height="20" as="geometry" />
        </mxCell>
        <mxCell id="Ka7_JeoY7FTha2EHZpds-18" style="edgeStyle=orthogonalEdgeStyle;rounded=0;orthogonalLoop=1;jettySize=auto;html=1;exitX=0;exitY=0.5;exitDx=0;exitDy=0;" parent="1" source="Ka7_JeoY7FTha2EHZpds-8" edge="1">
          <mxGeometry relative="1" as="geometry">
            <mxPoint x="615.9999999999995" y="330.0000000000001" as="targetPoint" />
          </mxGeometry>
        </mxCell>
        <mxCell id="Ka7_JeoY7FTha2EHZpds-8" value="" style="rounded=0;whiteSpace=wrap;html=1;" parent="1" vertex="1">
          <mxGeometry x="646" y="300" width="120" height="60" as="geometry" />
        </mxCell>
        <mxCell id="Ka7_JeoY7FTha2EHZpds-9" value="User (Technician)" style="text;html=1;strokeColor=none;fillColor=none;align=center;verticalAlign=middle;whiteSpace=wrap;rounded=0;" parent="1" vertex="1">
          <mxGeometry x="681" y="315" width="50" height="30" as="geometry" />
        </mxCell>
        <mxCell id="Ka7_JeoY7FTha2EHZpds-20" value="1..*" style="text;html=1;strokeColor=none;fillColor=none;align=center;verticalAlign=middle;whiteSpace=wrap;rounded=0;" parent="1" vertex="1">
          <mxGeometry x="481" y="305" width="40" height="20" as="geometry" />
        </mxCell>
        <mxCell id="Ka7_JeoY7FTha2EHZpds-21" value="1..*" style="text;html=1;strokeColor=none;fillColor=none;align=center;verticalAlign=middle;whiteSpace=wrap;rounded=0;" parent="1" vertex="1">
          <mxGeometry x="616" y="305" width="30" height="20" as="geometry" />
        </mxCell>
        <mxCell id="Ka7_JeoY7FTha2EHZpds-24" value="SampleChunk" style="whiteSpace=wrap;html=1;align=center;" parent="1" vertex="1">
          <mxGeometry x="61" y="300" width="120" height="60" as="geometry" />
        </mxCell>
        <mxCell id="Ka7_JeoY7FTha2EHZpds-80" style="edgeStyle=orthogonalEdgeStyle;rounded=0;orthogonalLoop=1;jettySize=auto;html=1;exitX=0;exitY=0.5;exitDx=0;exitDy=0;entryX=1;entryY=0.5;entryDx=0;entryDy=0;" parent="1" source="Ka7_JeoY7FTha2EHZpds-27" target="Ka7_JeoY7FTha2EHZpds-1" edge="1">
          <mxGeometry relative="1" as="geometry" />
        </mxCell>
        <mxCell id="Ka7_JeoY7FTha2EHZpds-27" value="Maintains" style="shape=rhombus;perimeter=rhombusPerimeter;whiteSpace=wrap;html=1;align=center;" parent="1" vertex="1">
          <mxGeometry x="516" y="305" width="100" height="50" as="geometry" />
        </mxCell>
        <mxCell id="Ka7_JeoY7FTha2EHZpds-72" style="edgeStyle=orthogonalEdgeStyle;rounded=0;orthogonalLoop=1;jettySize=auto;html=1;exitX=0.5;exitY=1;exitDx=0;exitDy=0;entryX=0.5;entryY=0;entryDx=0;entryDy=0;" parent="1" source="Ka7_JeoY7FTha2EHZpds-28" target="Ka7_JeoY7FTha2EHZpds-3" edge="1">
          <mxGeometry relative="1" as="geometry" />
        </mxCell>
        <mxCell id="Ka7_JeoY7FTha2EHZpds-28" value="Has" style="shape=rhombus;perimeter=rhombusPerimeter;whiteSpace=wrap;html=1;align=center;" parent="1" vertex="1">
          <mxGeometry x="371" y="410" width="100" height="40" as="geometry" />
        </mxCell>
        <mxCell id="Ka7_JeoY7FTha2EHZpds-34" value="Entities that the frontend is concerned with" style="text;html=1;strokeColor=none;fillColor=none;align=center;verticalAlign=middle;whiteSpace=wrap;rounded=0;fontSize=18;" parent="1" vertex="1">
          <mxGeometry x="-74" y="220" width="420" height="40" as="geometry" />
        </mxCell>
        <mxCell id="Ka7_JeoY7FTha2EHZpds-38" value="email" style="ellipse;whiteSpace=wrap;html=1;align=center;" parent="1" vertex="1">
          <mxGeometry x="816" y="390" width="100" height="40" as="geometry" />
        </mxCell>
        <mxCell id="Ka7_JeoY7FTha2EHZpds-39" value="id" style="ellipse;whiteSpace=wrap;html=1;align=center;fontStyle=4;" parent="1" vertex="1">
          <mxGeometry x="816" y="270" width="100" height="40" as="geometry" />
        </mxCell>
        <mxCell id="Ka7_JeoY7FTha2EHZpds-42" value="phone" style="ellipse;whiteSpace=wrap;html=1;align=center;" parent="1" vertex="1">
          <mxGeometry x="816" y="450" width="100" height="40" as="geometry" />
        </mxCell>
        <mxCell id="Ka7_JeoY7FTha2EHZpds-48" value="" style="endArrow=none;html=1;rounded=0;" parent="1" edge="1">
          <mxGeometry relative="1" as="geometry">
            <mxPoint x="766" y="329.16999999999996" as="sourcePoint" />
            <mxPoint x="796" y="329" as="targetPoint" />
          </mxGeometry>
        </mxCell>
        <mxCell id="Ka7_JeoY7FTha2EHZpds-49" value="" style="endArrow=none;html=1;" parent="1" edge="1">
          <mxGeometry width="50" height="50" relative="1" as="geometry">
            <mxPoint x="796" y="470" as="sourcePoint" />
            <mxPoint x="796" y="290" as="targetPoint" />
          </mxGeometry>
        </mxCell>
        <mxCell id="Ka7_JeoY7FTha2EHZpds-50" value="" style="endArrow=none;html=1;entryX=0;entryY=0.5;entryDx=0;entryDy=0;" parent="1" target="Ka7_JeoY7FTha2EHZpds-42" edge="1">
          <mxGeometry width="50" height="50" relative="1" as="geometry">
            <mxPoint x="796" y="470" as="sourcePoint" />
            <mxPoint x="836" y="480" as="targetPoint" />
          </mxGeometry>
        </mxCell>
        <mxCell id="Ka7_JeoY7FTha2EHZpds-52" value="" style="endArrow=none;html=1;entryX=0;entryY=0.5;entryDx=0;entryDy=0;" parent="1" target="Ka7_JeoY7FTha2EHZpds-38" edge="1">
          <mxGeometry width="50" height="50" relative="1" as="geometry">
            <mxPoint x="796" y="410" as="sourcePoint" />
            <mxPoint x="746" y="385" as="targetPoint" />
          </mxGeometry>
        </mxCell>
        <mxCell id="Ka7_JeoY7FTha2EHZpds-53" value="" style="endArrow=none;html=1;entryX=0;entryY=0.5;entryDx=0;entryDy=0;" parent="1" edge="1">
          <mxGeometry width="50" height="50" relative="1" as="geometry">
            <mxPoint x="796" y="350" as="sourcePoint" />
            <mxPoint x="816" y="350" as="targetPoint" />
          </mxGeometry>
        </mxCell>
        <mxCell id="Ka7_JeoY7FTha2EHZpds-54" value="" style="endArrow=none;html=1;entryX=0;entryY=0.5;entryDx=0;entryDy=0;" parent="1" target="Ka7_JeoY7FTha2EHZpds-39" edge="1">
          <mxGeometry width="50" height="50" relative="1" as="geometry">
            <mxPoint x="796" y="290" as="sourcePoint" />
            <mxPoint x="803" y="225" as="targetPoint" />
          </mxGeometry>
        </mxCell>
        <mxCell id="Ka7_JeoY7FTha2EHZpds-59" value="TimeStamp" style="ellipse;whiteSpace=wrap;html=1;align=center;" parent="1" vertex="1">
          <mxGeometry x="-89" y="290" width="100" height="40" as="geometry" />
        </mxCell>
        <mxCell id="Ka7_JeoY7FTha2EHZpds-62" value="Unit" style="ellipse;whiteSpace=wrap;html=1;align=center;" parent="1" vertex="1">
          <mxGeometry x="-79" y="570" width="100" height="40" as="geometry" />
        </mxCell>
        <mxCell id="Ka7_JeoY7FTha2EHZpds-63" value="" style="endArrow=none;html=1;rounded=0;" parent="1" edge="1">
          <mxGeometry relative="1" as="geometry">
            <mxPoint x="31" y="330" as="sourcePoint" />
            <mxPoint x="61" y="330" as="targetPoint" />
          </mxGeometry>
        </mxCell>
        <mxCell id="Ka7_JeoY7FTha2EHZpds-64" value="" style="endArrow=none;html=1;" parent="1" edge="1">
          <mxGeometry width="50" height="50" relative="1" as="geometry">
            <mxPoint x="11" y="310" as="sourcePoint" />
            <mxPoint x="31" y="310" as="targetPoint" />
          </mxGeometry>
        </mxCell>
        <mxCell id="Ka7_JeoY7FTha2EHZpds-65" value="" style="endArrow=none;html=1;exitX=1;exitY=0.5;exitDx=0;exitDy=0;" parent="1" source="Ka7_JeoY7FTha2EHZpds-62" edge="1">
          <mxGeometry width="50" height="50" relative="1" as="geometry">
            <mxPoint x="91" y="510" as="sourcePoint" />
            <mxPoint x="41" y="590" as="targetPoint" />
          </mxGeometry>
        </mxCell>
        <mxCell id="Ka7_JeoY7FTha2EHZpds-66" value="" style="endArrow=none;html=1;" parent="1" edge="1">
          <mxGeometry width="50" height="50" relative="1" as="geometry">
            <mxPoint x="41" y="650" as="sourcePoint" />
            <mxPoint x="41" y="510" as="targetPoint" />
          </mxGeometry>
        </mxCell>
        <mxCell id="Ka7_JeoY7FTha2EHZpds-67" value="" style="endArrow=none;html=1;exitX=1;exitY=0.5;exitDx=0;exitDy=0;" parent="1" edge="1">
          <mxGeometry width="50" height="50" relative="1" as="geometry">
            <mxPoint x="11" y="419.71000000000004" as="sourcePoint" />
            <mxPoint x="31" y="419.71000000000004" as="targetPoint" />
          </mxGeometry>
        </mxCell>
        <mxCell id="Ka7_JeoY7FTha2EHZpds-71" value="username" style="ellipse;whiteSpace=wrap;html=1;align=center;" parent="1" vertex="1">
          <mxGeometry x="816" y="330" width="100" height="40" as="geometry" />
        </mxCell>
        <mxCell id="Ka7_JeoY7FTha2EHZpds-77" style="edgeStyle=orthogonalEdgeStyle;rounded=0;orthogonalLoop=1;jettySize=auto;html=1;exitX=0.5;exitY=0;exitDx=0;exitDy=0;entryX=0.5;entryY=1;entryDx=0;entryDy=0;" parent="1" source="Ka7_JeoY7FTha2EHZpds-74" target="Ka7_JeoY7FTha2EHZpds-75" edge="1">
          <mxGeometry relative="1" as="geometry" />
        </mxCell>
        <mxCell id="Ka7_JeoY7FTha2EHZpds-74" value="Signal" style="rounded=0;whiteSpace=wrap;html=1;" parent="1" vertex="1">
          <mxGeometry x="61" y="480" width="120" height="60" as="geometry" />
        </mxCell>
        <mxCell id="Ka7_JeoY7FTha2EHZpds-76" style="edgeStyle=orthogonalEdgeStyle;rounded=0;orthogonalLoop=1;jettySize=auto;html=1;exitX=0.5;exitY=0;exitDx=0;exitDy=0;entryX=0.5;entryY=1;entryDx=0;entryDy=0;" parent="1" source="Ka7_JeoY7FTha2EHZpds-75" target="Ka7_JeoY7FTha2EHZpds-24" edge="1">
          <mxGeometry relative="1" as="geometry" />
        </mxCell>
        <mxCell id="Ka7_JeoY7FTha2EHZpds-75" value="Has" style="shape=rhombus;perimeter=rhombusPerimeter;whiteSpace=wrap;html=1;align=center;" parent="1" vertex="1">
          <mxGeometry x="71" y="400" width="100" height="40" as="geometry" />
        </mxCell>
        <mxCell id="Ka7_JeoY7FTha2EHZpds-82" style="edgeStyle=orthogonalEdgeStyle;rounded=0;orthogonalLoop=1;jettySize=auto;html=1;exitX=0;exitY=0.5;exitDx=0;exitDy=0;entryX=1;entryY=0.5;entryDx=0;entryDy=0;" parent="1" source="Ka7_JeoY7FTha2EHZpds-78" target="Ka7_JeoY7FTha2EHZpds-74" edge="1">
          <mxGeometry relative="1" as="geometry">
            <mxPoint x="191" y="510" as="targetPoint" />
          </mxGeometry>
        </mxCell>
        <mxCell id="Ka7_JeoY7FTha2EHZpds-78" value="Has" style="shape=rhombus;perimeter=rhombusPerimeter;whiteSpace=wrap;html=1;align=center;" parent="1" vertex="1">
          <mxGeometry x="211" y="490" width="100" height="40" as="geometry" />
        </mxCell>
        <mxCell id="Ka7_JeoY7FTha2EHZpds-84" value="?" style="text;html=1;strokeColor=none;fillColor=none;align=center;verticalAlign=middle;whiteSpace=wrap;rounded=0;" parent="1" vertex="1">
          <mxGeometry x="181" y="490" width="40" height="20" as="geometry" />
        </mxCell>
        <mxCell id="Ka7_JeoY7FTha2EHZpds-85" value="1" style="text;html=1;strokeColor=none;fillColor=none;align=center;verticalAlign=middle;whiteSpace=wrap;rounded=0;" parent="1" vertex="1">
          <mxGeometry x="331" y="490" width="30" height="20" as="geometry" />
        </mxCell>
        <mxCell id="Ka7_JeoY7FTha2EHZpds-86" value="1" style="text;html=1;strokeColor=none;fillColor=none;align=center;verticalAlign=middle;whiteSpace=wrap;rounded=0;" parent="1" vertex="1">
          <mxGeometry x="121" y="460" width="20" height="20" as="geometry" />
        </mxCell>
        <mxCell id="Ka7_JeoY7FTha2EHZpds-87" value="1..*" style="text;html=1;strokeColor=none;fillColor=none;align=center;verticalAlign=middle;whiteSpace=wrap;rounded=0;" parent="1" vertex="1">
          <mxGeometry x="121" y="360" width="30" height="20" as="geometry" />
        </mxCell>
        <mxCell id="Ka7_JeoY7FTha2EHZpds-88" value="" style="endArrow=none;html=1;fontSize=18;entryX=0;entryY=0.5;entryDx=0;entryDy=0;" parent="1" target="Ka7_JeoY7FTha2EHZpds-74" edge="1">
          <mxGeometry width="50" height="50" relative="1" as="geometry">
            <mxPoint x="11" y="510" as="sourcePoint" />
            <mxPoint x="-19" y="490" as="targetPoint" />
          </mxGeometry>
        </mxCell>
        <mxCell id="Ka7_JeoY7FTha2EHZpds-89" value="&lt;span style=&quot;font-size: 12px&quot;&gt;SignalType&lt;br&gt;(FFT, RMS)&lt;br&gt;&lt;/span&gt;" style="ellipse;whiteSpace=wrap;html=1;align=center;fontSize=18;" parent="1" vertex="1">
          <mxGeometry x="-79" y="490" width="100" height="60" as="geometry" />
        </mxCell>
        <mxCell id="Rr89790ZREREWkD3iGmF-1" value="" style="endArrow=none;html=1;" parent="1" edge="1">
          <mxGeometry width="50" height="50" relative="1" as="geometry">
            <mxPoint x="31" y="420" as="sourcePoint" />
            <mxPoint x="31" y="310" as="targetPoint" />
          </mxGeometry>
        </mxCell>
        <mxCell id="Rr89790ZREREWkD3iGmF-2" value="" style="endArrow=none;html=1;entryX=1;entryY=0.5;entryDx=0;entryDy=0;" parent="1" target="Rr89790ZREREWkD3iGmF-3" edge="1">
          <mxGeometry width="50" height="50" relative="1" as="geometry">
            <mxPoint x="41" y="650" as="sourcePoint" />
            <mxPoint x="112" y="589.5" as="targetPoint" />
          </mxGeometry>
        </mxCell>
        <mxCell id="Rr89790ZREREWkD3iGmF-3" value="Threshold" style="ellipse;whiteSpace=wrap;html=1;align=center;" parent="1" vertex="1">
          <mxGeometry x="-79" y="630" width="100" height="40" as="geometry" />
        </mxCell>
        <mxCell id="X1-eP5GNoeycg-1rSN3D-5" value="name" style="ellipse;whiteSpace=wrap;html=1;align=center;" parent="1" vertex="1">
          <mxGeometry x="225" y="340" width="100" height="40" as="geometry" />
        </mxCell>
        <mxCell id="X1-eP5GNoeycg-1rSN3D-7" value="id" style="ellipse;whiteSpace=wrap;html=1;align=center;fontStyle=4;" parent="1" vertex="1">
          <mxGeometry x="225" y="280" width="100" height="40" as="geometry" />
        </mxCell>
        <mxCell id="X1-eP5GNoeycg-1rSN3D-8" value="" style="endArrow=none;html=1;" parent="1" edge="1">
          <mxGeometry width="50" height="50" relative="1" as="geometry">
            <mxPoint x="340.8599999999999" y="360" as="sourcePoint" />
            <mxPoint x="340.8599999999999" y="300" as="targetPoint" />
          </mxGeometry>
        </mxCell>
        <mxCell id="X1-eP5GNoeycg-1rSN3D-11" value="" style="endArrow=none;html=1;entryX=1;entryY=0.5;entryDx=0;entryDy=0;" parent="1" target="X1-eP5GNoeycg-1rSN3D-5" edge="1">
          <mxGeometry width="50" height="50" relative="1" as="geometry">
            <mxPoint x="341" y="360" as="sourcePoint" />
            <mxPoint x="351" y="360" as="targetPoint" />
          </mxGeometry>
        </mxCell>
        <mxCell id="X1-eP5GNoeycg-1rSN3D-12" value="" style="endArrow=none;html=1;exitX=1;exitY=0.5;exitDx=0;exitDy=0;" parent="1" source="X1-eP5GNoeycg-1rSN3D-7" edge="1">
          <mxGeometry width="50" height="50" relative="1" as="geometry">
            <mxPoint x="351" y="430" as="sourcePoint" />
            <mxPoint x="341" y="300" as="targetPoint" />
          </mxGeometry>
        </mxCell>
        <mxCell id="X1-eP5GNoeycg-1rSN3D-13" value="" style="endArrow=none;html=1;" parent="1" target="Ka7_JeoY7FTha2EHZpds-1" edge="1">
          <mxGeometry width="50" height="50" relative="1" as="geometry">
            <mxPoint x="341" y="330" as="sourcePoint" />
            <mxPoint x="381" y="350" as="targetPoint" />
          </mxGeometry>
        </mxCell>
        <mxCell id="Ow13D0udRkTMBKkFioaj-1" value="Samples" style="ellipse;shape=doubleEllipse;margin=3;whiteSpace=wrap;html=1;align=center;" parent="1" vertex="1">
          <mxGeometry x="-89" y="400" width="100" height="40" as="geometry" />
        </mxCell>
        <mxCell id="Ow13D0udRkTMBKkFioaj-2" value="TimeStep" style="ellipse;whiteSpace=wrap;html=1;align=center;" parent="1" vertex="1">
          <mxGeometry x="-89" y="340" width="100" height="40" as="geometry" />
        </mxCell>
        <mxCell id="Ow13D0udRkTMBKkFioaj-3" value="" style="endArrow=none;html=1;exitX=1;exitY=0.5;exitDx=0;exitDy=0;" parent="1" edge="1">
          <mxGeometry width="50" height="50" relative="1" as="geometry">
            <mxPoint x="11" y="360" as="sourcePoint" />
            <mxPoint x="31" y="360" as="targetPoint" />
            <Array as="points">
              <mxPoint x="21" y="360" />
            </Array>
          </mxGeometry>
        </mxCell>
        <mxCell id="aO_Kc3jZTQS9ayOY7ApJ-2" value="Key" style="text;html=1;strokeColor=none;fillColor=none;align=center;verticalAlign=middle;whiteSpace=wrap;rounded=0;fontSize=14;fontStyle=1" vertex="1" parent="1">
          <mxGeometry x="-49" y="715" width="40" height="20" as="geometry" />
        </mxCell>
        <mxCell id="aO_Kc3jZTQS9ayOY7ApJ-3" value="EntityName" style="rounded=0;whiteSpace=wrap;html=1;fontSize=14;" vertex="1" parent="1">
          <mxGeometry x="40" y="740" width="120" height="60" as="geometry" />
        </mxCell>
        <mxCell id="aO_Kc3jZTQS9ayOY7ApJ-4" value="Entity (real life object)" style="text;html=1;strokeColor=none;fillColor=none;align=left;verticalAlign=middle;whiteSpace=wrap;rounded=0;fontSize=14;" vertex="1" parent="1">
          <mxGeometry x="-50" y="755" width="80" height="30" as="geometry" />
        </mxCell>
        <mxCell id="aO_Kc3jZTQS9ayOY7ApJ-7" value="Attribute(piece of information about an object)" style="text;html=1;strokeColor=none;fillColor=none;align=left;verticalAlign=middle;whiteSpace=wrap;rounded=0;fontSize=14;" vertex="1" parent="1">
          <mxGeometry x="242" y="732.5" width="119" height="75" as="geometry" />
        </mxCell>
        <mxCell id="aO_Kc3jZTQS9ayOY7ApJ-8" value="AttributeName" style="ellipse;whiteSpace=wrap;html=1;align=center;fillColor=#ffffff;fontSize=14;" vertex="1" parent="1">
          <mxGeometry x="371" y="750" width="100" height="40" as="geometry" />
        </mxCell>
        <mxCell id="aO_Kc3jZTQS9ayOY7ApJ-9" value="" style="endArrow=none;html=1;fontSize=14;" edge="1" parent="1">
          <mxGeometry width="50" height="50" relative="1" as="geometry">
            <mxPoint x="60" y="880" as="sourcePoint" />
            <mxPoint x="140" y="880" as="targetPoint" />
          </mxGeometry>
        </mxCell>
        <mxCell id="aO_Kc3jZTQS9ayOY7ApJ-10" value="Attribute is associated with entity" style="text;html=1;strokeColor=none;fillColor=none;align=left;verticalAlign=middle;whiteSpace=wrap;rounded=0;fontSize=14;" vertex="1" parent="1">
          <mxGeometry x="-54.5" y="850" width="89" height="60" as="geometry" />
        </mxCell>
        <mxCell id="aO_Kc3jZTQS9ayOY7ApJ-11" value="" style="endArrow=classic;html=1;fontSize=14;" edge="1" parent="1">
          <mxGeometry width="50" height="50" relative="1" as="geometry">
            <mxPoint x="381.5" y="879.5" as="sourcePoint" />
            <mxPoint x="460.5" y="879.5" as="targetPoint" />
          </mxGeometry>
        </mxCell>
        <mxCell id="aO_Kc3jZTQS9ayOY7ApJ-12" value="Entity is part of a relationship, in a certain direction" style="text;html=1;strokeColor=none;fillColor=none;align=center;verticalAlign=middle;whiteSpace=wrap;rounded=0;fontSize=14;" vertex="1" parent="1">
          <mxGeometry x="230" y="850" width="120" height="60" as="geometry" />
        </mxCell>
        <mxCell id="aO_Kc3jZTQS9ayOY7ApJ-14" value="Relation&lt;br&gt;Description" style="shape=rhombus;perimeter=rhombusPerimeter;whiteSpace=wrap;html=1;align=center;" vertex="1" parent="1">
          <mxGeometry x="636" y="740" width="130" height="57.5" as="geometry" />
        </mxCell>
        <mxCell id="aO_Kc3jZTQS9ayOY7ApJ-15" value="Relationship descriptor" style="text;html=1;strokeColor=none;fillColor=none;align=left;verticalAlign=middle;whiteSpace=wrap;rounded=0;fontSize=14;" vertex="1" parent="1">
          <mxGeometry x="540" y="731.25" width="103.5" height="75" as="geometry" />
        </mxCell>
        <mxCell id="aO_Kc3jZTQS9ayOY7ApJ-19" value="One entity instance" style="text;html=1;strokeColor=none;fillColor=none;align=left;verticalAlign=middle;whiteSpace=wrap;rounded=0;fontSize=14;" vertex="1" parent="1">
          <mxGeometry x="540" y="828" width="160" height="30" as="geometry" />
        </mxCell>
        <mxCell id="aO_Kc3jZTQS9ayOY7ApJ-20" value="One or more entity instances" style="text;html=1;strokeColor=none;fillColor=none;align=left;verticalAlign=middle;whiteSpace=wrap;rounded=0;fontSize=14;" vertex="1" parent="1">
          <mxGeometry x="541" y="870" width="119" height="30" as="geometry" />
        </mxCell>
        <mxCell id="aO_Kc3jZTQS9ayOY7ApJ-30" value="" style="endArrow=classic;html=1;fontSize=14;" edge="1" parent="1">
          <mxGeometry width="50" height="50" relative="1" as="geometry">
            <mxPoint x="690" y="844.67" as="sourcePoint" />
            <mxPoint x="731.0000000000009" y="844.6600000000002" as="targetPoint" />
          </mxGeometry>
        </mxCell>
        <mxCell id="aO_Kc3jZTQS9ayOY7ApJ-34" value="1" style="text;html=1;strokeColor=none;fillColor=none;align=center;verticalAlign=middle;whiteSpace=wrap;rounded=0;fontSize=14;" vertex="1" parent="1">
          <mxGeometry x="670" y="820" width="40" height="20" as="geometry" />
        </mxCell>
        <mxCell id="aO_Kc3jZTQS9ayOY7ApJ-40" value="" style="endArrow=classic;html=1;fontSize=14;" edge="1" parent="1">
          <mxGeometry width="50" height="50" relative="1" as="geometry">
            <mxPoint x="690" y="890.01" as="sourcePoint" />
            <mxPoint x="731.0000000000014" y="890" as="targetPoint" />
          </mxGeometry>
        </mxCell>
        <mxCell id="aO_Kc3jZTQS9ayOY7ApJ-41" value="1..*" style="text;html=1;strokeColor=none;fillColor=none;align=center;verticalAlign=middle;whiteSpace=wrap;rounded=0;fontSize=14;" vertex="1" parent="1">
          <mxGeometry x="678" y="867" width="40" height="20" as="geometry" />
        </mxCell>
      </root>
    </mxGraphModel>
  </diagram>
</mxfile>
